<svg xmlns="http://www.w3.org/2000/svg" width="256" height="256" viewBox="0 0 256 256">
  <defs>
    <linearGradient id="g" x1="32" y1="32" x2="224" y2="224" gradientUnits="userSpaceOnUse">
      <stop offset="0" stop-color="#3B82F6"/>
      <stop offset="1" stop-color="#A855F7"/>
    </linearGradient>
    <filter id="glow" x="-20%" y="-20%" width="140%" height="140%">
      <feGaussianBlur stdDeviation="6" result="b"/>
      <feMerge>
        <feMergeNode in="b"/>
        <feMergeNode in="SourceGraphic"/>
      </feMerge>
    </filter>
  </defs>

  <rect x="18" y="18" width="220" height="220" rx="56" fill="#0B0F14"/>
  <rect x="22" y="22" width="212" height="212" rx="54" fill="url(#g)" opacity="0.18"/>

  <!-- Chat bubble + spark -->
  <g filter="url(#glow)">
    <path d="M70 92c0-18 14-32 32-32h72c18 0 32 14 32 32v44c0 18-14 32-32 32h-34l-22 18c-3 3-8 0-8-4v-14h-8c-18 0-32-14-32-32V92z" fill="url(#g)"/>
  </g>

  <circle cx="114" cy="114" r="7" fill="#0B0F14" opacity="0.9"/>
  <circle cx="142" cy="114" r="7" fill="#0B0F14" opacity="0.9"/>
  <circle cx="170" cy="114" r="7" fill="#0B0F14" opacity="0.9"/>

  <!-- Small 'sidekick' spark -->
  <path d="M194 58l6 14 14 6-14 6-6 14-6-14-14-6 14-6 6-14z" fill="#E6EDF3" opacity="0.85"/>
</svg>
